#!OML:ASF H:\Terrain\Walking\May29\JustinRory\Justin.ASF
:FULLY-SPECIFIED
:DEGREES
118
root 17.0578 9.73687 -6.70392 -99.329 -86.6838 70.4425
lowerback 38.4103 5.12713 4.59119
upperback 14.1068 6.37905 2.74804
thorax -2.90425 2.41738 -1.61882
lowerneck -16.5675 13.4026 -2.52346
upperneck -0.953875 18.3789 -5.47967
head 2.78835 8.84372 0.0229719
rclavicle -5.56597e-015 -2.8625e-014
rhumerus 44.7339 18.8291 -64.6913
rradius 50.0896
rwrist -43.627
rhand -10.1226 13.4179
rfingers 7.12502
rthumb 15.8656 -15.9521
lclavicle -5.56597e-015 -2.8625e-014
lhumerus 15.1247 -37.0256 85.2824
lradius 52.9324
lwrist -16.1504
lhand -19.2704 38.0946
lfingers 7.12502
lthumb 7.04413 67.9574
rfemur -60.4355 -15.8114 14.7096
rtibia 72.1125
rfoot 19.2754 2.92813
rtoes 11.5505
lfemur -59.6611 7.42468 -14.0128
ltibia 71.8731
lfoot 21.344 -3.46716
ltoes 23.7054
119
root 17.0576 9.73501 -6.70323 -96.9478 -87.0404 68.0985
lowerback 38.2753 5.52117 4.5165
upperback 14.04 6.91658 3.47345
thorax -3.01214 2.6503 -1.0063
lowerneck -16.571 13.0483 -3.1117
upperneck -0.893866 18.0345 -5.76006
head 2.77974 8.65622 -0.00310154
rclavicle -1.70955e-014 -4.77083e-015
rhumerus 45.264 19.1048 -63.8297
rradius 50.1665
rwrist -43.8684
rhand -10.4065 13.1503
rfingers 7.12502
rthumb 15.5921 -16.2412
lclavicle -1.70955e-014 -4.77083e-015
lhumerus 15.1437 -37.4712 86.3935
lradius 52.6277
lwrist -16.4439
lhand -18.8147 37.233
lfingers 7.12502
lthumb 7.48404 67.0807
rfemur -60.4882 -15.9697 15.0397
rtibia 72.1997
rfoot 19.4389 2.59692
rtoes 13.3049
lfemur -59.7801 7.35816 -13.7365
ltibia 71.8537
lfoot 21.2435 -3.74969
ltoes 22.5886
120
root 17.0473 9.7265 -6.70129 -91.1987 -87.048 62.3507
lowerback 38.3111 5.40129 5.03317
upperback 13.909 6.96356 3.12039
thorax -3.05778 2.71889 -1.65483
lowerneck -16.4649 12.8859 -2.8671
upperneck -1.21283 17.7304 -5.50849
head 2.64445 8.53181 -0.00779245
rclavicle -1.15693e-013 5.725e-014
rhumerus 45.7556 19.1381 -64.5312
rradius 49.9831
rwrist -43.6381
rhand -10.2236 13.8111
rfingers 7.12502
rthumb 15.7683 -15.5666
lclavicle -1.15693e-013 5.725e-014
lhumerus 15.4562 -38.2986 85.9114
lradius 52.4512
lwrist -16.2892
lhand -18.1938 36.8332
lfingers 7.12502
lthumb 8.08333 66.6586
rfemur -60.5448 -16.3393 14.9342
rtibia 72.3572
rfoot 19.3802 2.75887
rtoes 13.8253
lfemur -59.8855 7.2898 -14.1405
ltibia 71.7748
lfoot 21.1811 -5.21826
ltoes 15.3861
121
root 17.0511 9.72989 -6.70985 -88.2441 -86.7115 59.3536
lowerback 38.3544 5.51717 4.79016
upperback 13.8274 7.03445 2.92492
thorax -3.16377 2.75739 -1.76729
lowerneck -16.5182 12.778 -2.66181
upperneck -1.37213 17.5329 -5.42331
head 2.60818 8.44101 -0.0289902
rclavicle 1.37559e-013 -6.44062e-014
rhumerus 46.271 19.4972 -65.3976
rradius 50.0314
rwrist -43.5745
rhand -10.0973 14.2723
rfingers 7.12502
rthumb 15.89 -15.0957
lclavicle 1.37559e-013 -6.44062e-014
lhumerus 15.7016 -38.7419 85.7953
lradius 52.1306
lwrist -16.1911
lhand -17.9654 37.1177
lfingers 7.12502
lthumb 8.30372 66.9345
rfemur -60.5165 -16.49 14.4948
rtibia 72.4426
rfoot 19.2512 2.78721
rtoes 14.4733
lfemur -59.7997 6.97718 -14.2581
ltibia 71.7419
lfoot 21.4794 -4.04026
ltoes 20.7089
122
root 17.0426 9.72601 -6.72211 -87.2773 -86.4912 58.4139
lowerback 38.2382 5.73568 4.31386
upperback 13.7552 7.16361 2.99565
thorax -3.26885 2.80502 -1.49916
lowerneck -16.8434 12.7137 -2.74892
upperneck -1.10305 17.4917 -5.41202
head 2.75082 8.40291 0.0201694
rclavicle -1.27222e-014 -2.78299e-014
rhumerus 46.6398 20.0821 -66.2177
rradius 50.3582
rwrist -43.0903
rhand -10.4644 14.3092
rfingers 7.12502
rthumb 15.5364 -15.0867
lclavicle -1.27222e-014 -2.78299e-014
lhumerus 15.6913 -38.8167 86.0541
lradius 51.8344
lwrist -16.1887
lhand -17.9126 37.3126
lfingers 7.12502
lthumb 8.35468 67.1274
rfemur -60.6332 -16.5632 14.309
rtibia 72.58
rfoot 19.2103 2.78924
rtoes 14.4238
lfemur -59.8357 7.10374 -14.7165
ltibia 71.662
lfoot 21.2577 -5.30175
ltoes 15.3321
123
root 17.0455 9.72529 -6.72759 -84.5096 -86.7502 55.7422
lowerback 38.1514 5.78048 4.64579
upperback 13.6319 7.37322 3.07744
thorax -3.33757 2.92366 -1.65329
lowerneck -17.2472 12.4329 -3.46785
upperneck -0.840572 17.2503 -4.7812
head 2.78087 8.29487 0.333609
rclavicle 6.24184e-014 2.8625e-014
rhumerus 47.2205 20.5892 -66.0781
rradius 50.5133
rwrist -42.7705
rhand -11.3264 15.1705
rfingers 7.12502
rthumb 14.706 -14.2879
lclavicle 6.24184e-014 2.8625e-014
lhumerus 15.771 -39.2421 86.2168
lradius 51.6281
lwrist -16.0593
lhand -17.7583 37.1369
lfingers 7.12502
lthumb 8.50359 66.9457
rfemur -60.6911 -16.6353 14.6787
rtibia 72.5733
rfoot 19.1812 2.69726
rtoes 14.3188
lfemur -59.9996 6.90003 -14.1701
ltibia 71.7119
lfoot 21.3723 -4.44525
ltoes 20.3889
124
root 17.0447 9.71555 -6.72727 -81.757 -87.0204 52.9866
lowerback 38.3075 5.83697 5.18734
upperback 13.4278 7.68463 3.07739
thorax -3.52776 3.09637 -2.04683
lowerneck -17.3478 12.0145 -4.08458
upperneck -0.748608 16.7841 -4.06907
head 2.70583 8.09369 0.613191
rclavicle -1.04958e-013 -1.43125e-014
rhumerus 47.7774 20.761 -66.2869
rradius 50.3255
rwrist -42.3434
rhand -11.399 15.9458
rfingers 7.12502
rthumb 14.6361 -13.5177
lclavicle -1.04958e-013 -1.43125e-014
lhumerus 15.835 -39.9776 86.4741
lradius 51.3434
lwrist -16.0675
lhand -17.4052 36.8441
lfingers 7.12502
lthumb 8.84436 66.6387
rfemur -60.7063 -16.6241 14.912
rtibia 72.6239
rfoot 19.2011 2.30215
rtoes 15.8894
lfemur -60.0855 6.96766 -14.0837
ltibia 71.6678
lfoot 21.1743 -5.69668
ltoes 14.3179
125
root 17.0523 9.72468 -6.73138 -80.1904 -86.9088 51.2621
lowerback 38.6023 6.2179 5.52595
upperback 13.108 8.34096 2.73814
thorax -3.84207 3.44596 -2.82312
lowerneck -16.9561 11.6695 -1.9971
upperneck -0.690719 15.9751 -4.90635
head 2.92782 7.6599 -0.0231996
rclavicle -5.00937e-014 2.22639e-014
rhumerus 47.3013 19.5642 -68.5736
rradius 49.8794
rwrist -40.8286
rhand -12.3154 16.2366
rfingers 7.12502
rthumb 13.7531 -13.2889
lclavicle -5.00937e-014 2.22639e-014
lhumerus 15.8639 -41.9616 86.3214
lradius 51.0697
lwrist -15.9157
lhand -17.5912 36.7007
lfingers 7.12502
lthumb 8.66481 66.5029
rfemur -60.4403 -16.6298 14.6746
rtibia 72.5855
rfoot 19.3195 1.80136
rtoes 17.7294
lfemur -59.8666 6.70542 -13.9518
ltibia 71.6711
lfoot 21.3954 -4.45087
ltoes 19.56
126
root 17.0452 9.72693 -6.73359 -77.9673 -86.7521 48.9247
lowerback 38.8899 6.60783 6.07709
upperback 12.7144 9.06476 1.95329
thorax -4.11262 3.85595 -4.19518
lowerneck -16.7341 11.4812 1.77198
upperneck -0.606971 15.1047 -6.22804
head 3.37589 7.17412 -1.08698
rclavicle 6.59965e-014 -1.35174e-014
rhumerus 46.4932 18.1452 -70.4767
rradius 50.0653
rwrist -40.3526
rhand -17.381 17.4865
rfingers 7.12502
rthumb 8.86774 -12.3071
lclavicle 6.59965e-014 -1.35174e-014
lhumerus 16.13 -44.7719 85.1449
lradius 50.9863
lwrist -15.4931
lhand -18.0903 36.6812
lfingers 7.12502
lthumb 8.18317 66.5028
rfemur -60.2813 -16.7708 14.4514
rtibia 72.6415
rfoot 19.3569 1.60539
rtoes 18.2987
lfemur -59.7395 6.6735 -14.347
ltibia 71.5926
lfoot 21.2121 -5.41743
ltoes 14.5525
127
root 17.0507 9.7254 -6.73577 -77.099 -86.746 48.0592
lowerback 39.0391 6.70616 6.30226
upperback 12.4783 9.29883 1.67139
thorax -4.3205 3.9849 -4.70434
lowerneck -16.6972 11.2249 1.91301
upperneck -0.762267 14.701 -5.82534
head 3.27284 6.99755 -1.02703
rclavicle -4.27387e-014 4.13472e-014
rhumerus 46.6964 18.8259 -70.1355
rradius 50.8026
rwrist -41.059
rhand -12.964 16.0269
rfingers 7.12502
rthumb 13.1279 -13.5399
lclavicle -4.27387e-014 4.13472e-014
lhumerus 16.0441 -45.4557 85.0857
lradius 50.7146
lwrist -15.5558
lhand -18.1586 36.34
lfingers 7.12502
lthumb 8.11731 66.1641
rfemur -60.2942 -16.7971 14.4705
rtibia 72.6517
rfoot 19.2157 1.93496
rtoes 17.1143
lfemur -59.7505 6.54394 -14.1253
ltibia 71.6274
lfoot 21.3433 -4.23746
ltoes 19.9273
128
root 17.0497 9.71137 -6.74384 -78.9826 -86.6628 50.0073
lowerback 38.8911 6.90564 5.59118
upperback 12.5487 9.32342 2.31265
thorax -4.40639 3.94485 -3.68738
lowerneck -16.9065 10.8543 -0.938672
upperneck -0.865914 14.6784 -4.87384
head 2.93456 7.02501 -0.284621
rclavicle -2.34566e-014 1.66979e-014
rhumerus 47.9619 21.2431 -67.348
rradius 51.8293
rwrist -42.6029
rhand -12.6746 15.1531
rfingers 7.12502
rthumb 13.4068 -14.3955
lclavicle -2.34566e-014 1.66979e-014
lhumerus 15.7389 -44.1139 86.7906
lradius 50.0721
lwrist -16.019
lhand -18.1613 36.1285
lfingers 7.12502
lthumb 8.11465 65.9527
rfemur -60.5071 -16.6102 14.3969
rtibia 72.7193
rfoot 19.2263 1.86369
rtoes 17.1783
lfemur -59.8785 6.73685 -14.2983
ltibia 71.6126
lfoot 21.3761 -4.52039
ltoes 18.7453
